#define bitmap_width 64
#define bitmap_height 64
static unsigned char bitmap_bits[] = {
 0x00, 0x00, 0xC0, 0x63, 0x40, 0x00, 0x00, 0x00, 0x00, 0x00, 0x40, 0x42,
 0x70, 0x00, 0x00, 0x00, 0x00, 0x00, 0x00, 0x46, 0x18, 0x00, 0x00, 0x00,
 0x00, 0x00, 0x00, 0xFE, 0x3F, 0x00, 0x00, 0x00, 0x00, 0x00, 0xF0, 0x47,
 0xEC, 0x01, 0x00, 0x00, 0x00, 0x00, 0x1C, 0x4C, 0x04, 0x07, 0x00, 0x00,
 0x00, 0x00, 0x07, 0x48, 0x02, 0x1C, 0x00, 0x00, 0x00, 0xC0, 0x00, 0x00,
 0x03, 0x30, 0x00, 0x00, 0x00, 0x60, 0x00, 0x00, 0x01, 0xC0, 0x00, 0x00,
 0x00, 0x30, 0x00, 0x00, 0x00, 0x80, 0x01, 0x00, 0x00, 0x18, 0x00, 0x00,
 0x00, 0x00, 0x03, 0x00, 0x00, 0x04, 0x00, 0x00, 0x00, 0x00, 0x04, 0x00,
 0x00, 0x02, 0x00, 0x00, 0x00, 0x00, 0x1C, 0x00, 0x00, 0x02, 0x00, 0x00,
 0x00, 0x00, 0x10, 0x00, 0x00, 0x03, 0x00, 0x00, 0x00, 0x00, 0x20, 0x00,
 0x00, 0x01, 0x00, 0x00, 0x00, 0x00, 0x60, 0x00, 0x80, 0x01, 0x00, 0x00,
 0x00, 0x00, 0x40, 0x00, 0x80, 0x00, 0x03, 0x00, 0x00, 0x00, 0xC0, 0x00,
 0xC0, 0xC0, 0x7F, 0x00, 0xF0, 0x0F, 0x80, 0x00, 0x40, 0x70, 0xC0, 0x00,
 0x18, 0xFE, 0x80, 0x01, 0x60, 0x18, 0x00, 0x01, 0x0C, 0x80, 0x01, 0x03,
 0x20, 0x08, 0x00, 0x02, 0x04, 0x00, 0x03, 0x02, 0x30, 0x0C, 0x00, 0x02,
 0x04, 0x00, 0x02, 0x04, 0x10, 0x0C, 0x78, 0x02, 0x64, 0x00, 0x02, 0x0C,
 0x10, 0x08, 0xF8, 0x03, 0x7C, 0x00, 0x02, 0x08, 0x18, 0x08, 0xFC, 0x03,
 0xFC, 0x00, 0x03, 0x08, 0x08, 0x08, 0xFC, 0x03, 0xFC, 0x00, 0x01, 0x10,
 0x08, 0x10, 0xFC, 0x03, 0xFC, 0x00, 0x01, 0x10, 0x08, 0x30, 0xF8, 0x01,
 0xFC, 0x80, 0x01, 0x10, 0x0C, 0xC0, 0x7F, 0x00, 0x7C, 0xE0, 0x00, 0x30,
 0x04, 0x00, 0x00, 0x00, 0xE0, 0x3F, 0x00, 0x20, 0x04, 0x00, 0x00, 0x00,
 0x00, 0x00, 0x00, 0x20, 0x04, 0x00, 0x00, 0x00, 0x00, 0x00, 0x00, 0x20,
 0x04, 0x00, 0x00, 0x00, 0x00, 0x00, 0x00, 0x20, 0x04, 0x00, 0x00, 0x00,
 0x00, 0x00, 0x00, 0x20, 0x04, 0x00, 0x00, 0x00, 0x00, 0x00, 0x00, 0x20,
 0x04, 0x00, 0x00, 0x00, 0x00, 0x00, 0x00, 0x20, 0x04, 0x00, 0x00, 0x00,
 0x00, 0x00, 0x00, 0x20, 0x04, 0x00, 0x00, 0x00, 0x00, 0x00, 0x00, 0x20,
 0x0C, 0x00, 0x00, 0x00, 0x00, 0x20, 0x00, 0x38, 0x08, 0x00, 0x02, 0x00,
 0x00, 0x30, 0x00, 0x78, 0x08, 0x00, 0x02, 0x00, 0x00, 0x18, 0x00, 0x50,
 0x08, 0x00, 0x06, 0x00, 0x00, 0x0E, 0x00, 0x94, 0x18, 0x00, 0x0C, 0x00,
 0x80, 0x03, 0x00, 0x1C, 0x10, 0x00, 0x18, 0x00, 0xC0, 0x00, 0x00, 0x18,
 0x20, 0x01, 0xF0, 0x03, 0x7C, 0x00, 0x00, 0x79, 0xE0, 0x09, 0x00, 0xFE,
 0x07, 0x00, 0x00, 0x19, 0x60, 0x0C, 0x00, 0x00, 0x00, 0x00, 0x20, 0x0A,
 0x58, 0x04, 0x00, 0x00, 0x00, 0x00, 0x20, 0x0E, 0xCC, 0x02, 0x00, 0x00,
 0x00, 0x00, 0x60, 0x04, 0x80, 0x23, 0x00, 0x00, 0x00, 0x00, 0x40, 0x1E,
 0x80, 0xB1, 0x00, 0x00, 0x00, 0x00, 0x80, 0x02, 0x80, 0xDB, 0x00, 0x00,
 0x00, 0x00, 0x80, 0x01, 0xE0, 0x4E, 0x00, 0x00, 0x00, 0x00, 0xF0, 0x03,
 0xB0, 0x3F, 0x00, 0x00, 0x00, 0x00, 0x1C, 0x00, 0x80, 0x70, 0x00, 0x00,
 0x00, 0x00, 0x07, 0x00, 0x00, 0xDE, 0x03, 0x00, 0x00, 0xC0, 0x01, 0x00,
 0x00, 0x06, 0x06, 0x00, 0x00, 0x60, 0x00, 0x00, 0x00, 0x00, 0x38, 0x00,
 0x00, 0x3C, 0x00, 0x00, 0x00, 0x00, 0xE0, 0x03, 0xC0, 0x03, 0x00, 0x00,
 0x00, 0x00, 0x00, 0xFC, 0x3F, 0x00, 0x00, 0x00, 0x00, 0x00, 0x00, 0x00,
 0x00, 0x00, 0x00, 0x00, 0x00, 0x00, 0x00, 0x00, 0x00, 0x00, 0x00, 0x00,
 0x00, 0x00, 0x00, 0x00, 0x00, 0x00, 0x00, 0x00 };
